<svg xmlns="http://www.w3.org/2000/svg" xmlns:xlink="http://www.w3.org/1999/xlink" xmlns:lucid="lucid" width="2463" height="1341"><g transform="translate(520.5 320.5)" lucid:page-tab-id="0_0"><path d="M380 65a5 5 0 0 1 5-5h376.55a5 5 0 0 1 5 5v382a5 5 0 0 1-5 5H385a5 5 0 0 1-5-5z" fill="#fff"/><path d="M380 100V65a5 5 0 0 1 5-5h376.55a5 5 0 0 1 5 5v35" fill="#dedeff"/><path d="M380 65a5 5 0 0 1 5-5h376.55a5 5 0 0 1 5 5v382a5 5 0 0 1-5 5H385a5 5 0 0 1-5-5zM380 100h386.55M440 100v352M603.27 100v352" stroke="#282c33" fill="none"/><use xlink:href="#a" transform="matrix(1,0,0,1,390,60) translate(0 23.6)"/><use xlink:href="#b" transform="matrix(1,0,0,1,385,102.5) translate(13 17.1)"/><use xlink:href="#c" transform="matrix(1,0,0,1,445,102.5) translate(0 17.1)"/><use xlink:href="#d" transform="matrix(1,0,0,1,608.2728773981526,102.5) translate(0 17.1)"/><use xlink:href="#e" transform="matrix(1,0,0,1,385,134.5) translate(13.524999999999999 17.1)"/><use xlink:href="#f" transform="matrix(1,0,0,1,445,134.5) translate(0 17.1)"/><use xlink:href="#d" transform="matrix(1,0,0,1,608.2728773981526,134.5) translate(0 17.1)"/><use xlink:href="#e" transform="matrix(1,0,0,1,385,166.5) translate(13.524999999999999 17.1)"/><use xlink:href="#g" transform="matrix(1,0,0,1,445,166.5) translate(0 17.1)"/><use xlink:href="#d" transform="matrix(1,0,0,1,608.2728773981526,166.5) translate(0 17.1)"/><use xlink:href="#h" transform="matrix(1,0,0,1,445,198.5) translate(0 17.1)"/><use xlink:href="#i" transform="matrix(1,0,0,1,608.2728773981526,198.5) translate(0 17.1)"/><use xlink:href="#j" transform="matrix(1,0,0,1,608.2728773981526,198.5) translate(91.45 17.1)"/><use xlink:href="#k" transform="matrix(1,0,0,1,445,230.5) translate(0 17.1)"/><use xlink:href="#d" transform="matrix(1,0,0,1,608.2728773981526,230.5) translate(0 17.1)"/><use xlink:href="#l" transform="matrix(1,0,0,1,445,262.5) translate(0 17.1)"/><use xlink:href="#i" transform="matrix(1,0,0,1,608.2728773981526,262.5) translate(0 17.1)"/><use xlink:href="#m" transform="matrix(1,0,0,1,608.2728773981526,262.5) translate(91.45 17.1)"/><use xlink:href="#n" transform="matrix(1,0,0,1,445,294.5) translate(0 17.1)"/><use xlink:href="#o" transform="matrix(1,0,0,1,608.2728773981526,294.5) translate(0 17.1)"/><use xlink:href="#p" transform="matrix(1,0,0,1,445,326.5) translate(0 17.1)"/><use xlink:href="#q" transform="matrix(1,0,0,1,608.2728773981526,326.5) translate(0 17.1)"/><use xlink:href="#j" transform="matrix(1,0,0,1,608.2728773981526,326.5) translate(101.45 17.1)"/><use xlink:href="#r" transform="matrix(1,0,0,1,445,358.5) translate(0 17.1)"/><use xlink:href="#o" transform="matrix(1,0,0,1,608.2728773981526,358.5) translate(0 17.1)"/><use xlink:href="#s" transform="matrix(1,0,0,1,445,390.5) translate(0 17.1)"/><use xlink:href="#o" transform="matrix(1,0,0,1,608.2728773981526,390.5) translate(0 17.1)"/><use xlink:href="#t" transform="matrix(1,0,0,1,445,422.5) translate(0 17.1)"/><use xlink:href="#u" transform="matrix(1,0,0,1,608.2728773981526,422.5) translate(0 17.1)"/><path d="M1540 345a5 5 0 0 1 5-5h350a5 5 0 0 1 5 5v286a5 5 0 0 1-5 5h-350a5 5 0 0 1-5-5z" fill="#fff"/><path d="M1540 380v-35a5 5 0 0 1 5-5h350a5 5 0 0 1 5 5v35" fill="#dedeff"/><path d="M1540 345a5 5 0 0 1 5-5h350a5 5 0 0 1 5 5v286a5 5 0 0 1-5 5h-350a5 5 0 0 1-5-5zM1540 380h360M1600 380v256M1750 380v256" stroke="#282c33" fill="none"/><use xlink:href="#v" transform="matrix(1,0,0,1,1550,340) translate(0 23.6)"/><use xlink:href="#b" transform="matrix(1,0,0,1,1545,382.5) translate(13 17.1)"/><use xlink:href="#w" transform="matrix(1,0,0,1,1605,382.5) translate(0 17.1)"/><use xlink:href="#d" transform="matrix(1,0,0,1,1755,382.5) translate(0 17.1)"/><use xlink:href="#x" transform="matrix(1,0,0,1,1545,414.5) translate(12.524999999999999 17.1)"/><use xlink:href="#y" transform="matrix(1,0,0,1,1605,414.5) translate(0 17.1)"/><use xlink:href="#i" transform="matrix(1,0,0,1,1755,414.5) translate(0 17.1)"/><use xlink:href="#z" transform="matrix(1,0,0,1,1755,414.5) translate(91.45 17.1)"/><use xlink:href="#A" transform="matrix(1,0,0,1,1605,446.5) translate(0 17.1)"/><use xlink:href="#i" transform="matrix(1,0,0,1,1755,446.5) translate(0 17.1)"/><use xlink:href="#j" transform="matrix(1,0,0,1,1755,446.5) translate(91.45 17.1)"/><use xlink:href="#p" transform="matrix(1,0,0,1,1605,478.5) translate(0 17.1)"/><use xlink:href="#i" transform="matrix(1,0,0,1,1755,478.5) translate(0 17.1)"/><use xlink:href="#j" transform="matrix(1,0,0,1,1755,478.5) translate(91.45 17.1)"/><use xlink:href="#x" transform="matrix(1,0,0,1,1545,510.5) translate(12.524999999999999 17.1)"/><use xlink:href="#B" transform="matrix(1,0,0,1,1605,510.5) translate(0 17.1)"/><use xlink:href="#i" transform="matrix(1,0,0,1,1755,510.5) translate(0 17.1)"/><use xlink:href="#C" transform="matrix(1,0,0,1,1755,510.5) translate(91.45 17.1)"/><use xlink:href="#x" transform="matrix(1,0,0,1,1545,542.5) translate(12.524999999999999 17.1)"/><use xlink:href="#D" transform="matrix(1,0,0,1,1605,542.5) translate(0 17.1)"/><use xlink:href="#i" transform="matrix(1,0,0,1,1755,542.5) translate(0 17.1)"/><use xlink:href="#C" transform="matrix(1,0,0,1,1755,542.5) translate(91.45 17.1)"/><use xlink:href="#r" transform="matrix(1,0,0,1,1605,574.5) translate(0 17.1)"/><use xlink:href="#o" transform="matrix(1,0,0,1,1755,574.5) translate(0 17.1)"/><use xlink:href="#E" transform="matrix(1,0,0,1,1605,606.5) translate(0 17.1)"/><use xlink:href="#u" transform="matrix(1,0,0,1,1755,606.5) translate(0 17.1)"/><path d="M-60-151.2a5 5 0 0 1 5-5h310a5 5 0 0 1 5 5v222a5 5 0 0 1-5 5H-55a5 5 0 0 1-5-5z" fill="#fff"/><path d="M-60-116.2v-35a5 5 0 0 1 5-5h310a5 5 0 0 1 5 5v35" fill="#dedeff"/><path d="M-60-151.2a5 5 0 0 1 5-5h310a5 5 0 0 1 5 5v222a5 5 0 0 1-5 5H-55a5 5 0 0 1-5-5zM-60-116.2h320M13.48-116.2v192M130-116.2v192" stroke="#282c33" fill="none"/><use xlink:href="#F" transform="matrix(1,0,0,1,-50,-156.20974822640392) translate(0 23.6)"/><use xlink:href="#b" transform="matrix(1,0,0,1,-55,-113.70974822640392) translate(20 17.1)"/><use xlink:href="#G" transform="matrix(1,0,0,1,18.480825292898203,-113.70974822640392) translate(0 17.1)"/><use xlink:href="#d" transform="matrix(1,0,0,1,135,-113.70974822640392) translate(0 17.1)"/><use xlink:href="#e" transform="matrix(1,0,0,1,-55,-81.70974822640392) translate(20.525 17.1)"/><use xlink:href="#H" transform="matrix(1,0,0,1,18.480825292898203,-81.70974822640392) translate(0 17.1)"/><use xlink:href="#d" transform="matrix(1,0,0,1,135,-81.70974822640392) translate(0 17.1)"/><use xlink:href="#e" transform="matrix(1,0,0,1,-55,-49.70974822640392) translate(20.525 17.1)"/><use xlink:href="#I" transform="matrix(1,0,0,1,18.480825292898203,-49.70974822640392) translate(0 17.1)"/><use xlink:href="#d" transform="matrix(1,0,0,1,135,-49.70974822640392) translate(0 17.1)"/><use xlink:href="#J" transform="matrix(1,0,0,1,18.480825292898203,-17.709748226403917) translate(0 17.1)"/><use xlink:href="#d" transform="matrix(1,0,0,1,135,-17.709748226403917) translate(0 17.1)"/><use xlink:href="#K" transform="matrix(1,0,0,1,18.480825292898203,14.290251773596083) translate(0 17.1)"/><use xlink:href="#d" transform="matrix(1,0,0,1,135,14.290251773596083) translate(0 17.1)"/><use xlink:href="#s" transform="matrix(1,0,0,1,18.480825292898203,46.29025177359608) translate(0 17.1)"/><use xlink:href="#o" transform="matrix(1,0,0,1,135,46.29025177359608) translate(0 17.1)"/><path d="M1564.07 319.5v-8a12 12 0 0 0-12-12H820.05a12 12 0 0 1-12-12V149a1 1 0 0 0-1-1M1564.07 339.5v-20m10 10h-20m20-10h-20" stroke="#3a414a" fill="none"/><path d="M767.27 148h20m-20 10l20-10m-20-10l20 10m20 0c0 5.52-4.48 10-10 10s-10-4.48-10-10 4.48-10 10-10 10 4.48 10 10z" stroke="#3a414a" fill="#fff"/><path d="M-500 245a5 5 0 0 1 5-5h290a5 5 0 0 1 5 5v158a5 5 0 0 1-5 5h-290a5 5 0 0 1-5-5z" fill="#fff"/><path d="M-500 280v-35a5 5 0 0 1 5-5h290a5 5 0 0 1 5 5v35" fill="#dedeff"/><path d="M-500 245a5 5 0 0 1 5-5h290a5 5 0 0 1 5 5v158a5 5 0 0 1-5 5h-290a5 5 0 0 1-5-5zM-500 280h300M-426.52 280v128M-323.4 280v128" stroke="#282c33" fill="none"/><use xlink:href="#L" transform="matrix(1,0,0,1,-490,240) translate(0 23.6)"/><use xlink:href="#b" transform="matrix(1,0,0,1,-495,282.5) translate(20 17.1)"/><use xlink:href="#M" transform="matrix(1,0,0,1,-421.5191747071018,282.5) translate(0 17.1)"/><use xlink:href="#d" transform="matrix(1,0,0,1,-318.4133797146792,282.5) translate(0 17.1)"/><use xlink:href="#e" transform="matrix(1,0,0,1,-495,314.5) translate(20.525 17.1)"/><use xlink:href="#G" transform="matrix(1,0,0,1,-421.5191747071018,314.5) translate(0 17.1)"/><use xlink:href="#d" transform="matrix(1,0,0,1,-318.4133797146792,314.5) translate(0 17.1)"/><use xlink:href="#e" transform="matrix(1,0,0,1,-495,346.5) translate(20.525 17.1)"/><use xlink:href="#N" transform="matrix(1,0,0,1,-421.5191747071018,346.5) translate(0 17.1)"/><use xlink:href="#d" transform="matrix(1,0,0,1,-318.4133797146792,346.5) translate(0 17.1)"/><use xlink:href="#O" transform="matrix(1,0,0,1,-421.5191747071018,378.5) translate(0 17.1)"/><use xlink:href="#u" transform="matrix(1,0,0,1,-318.4133797146792,378.5) translate(0 17.1)"/><path d="M920-295a5 5 0 0 1 5-5h310a5 5 0 0 1 5 5v254a5 5 0 0 1-5 5H925a5 5 0 0 1-5-5z" fill="#fff"/><path d="M920-260v-35a5 5 0 0 1 5-5h310a5 5 0 0 1 5 5v35" fill="#dedeff"/><path d="M920-295a5 5 0 0 1 5-5h310a5 5 0 0 1 5 5v254a5 5 0 0 1-5 5H925a5 5 0 0 1-5-5zM920-260h320M993.48-260v224M1115.22-260v224" stroke="#282c33" fill="none"/><use xlink:href="#P" transform="matrix(1,0,0,1,930,-300) translate(0 23.6)"/><use xlink:href="#b" transform="matrix(1,0,0,1,925,-257.5) translate(20 17.1)"/><use xlink:href="#Q" transform="matrix(1,0,0,1,998.4808252928982,-257.5) translate(0 17.1)"/><use xlink:href="#d" transform="matrix(1,0,0,1,1120.2254174865443,-257.5) translate(0 17.1)"/><use xlink:href="#e" transform="matrix(1,0,0,1,925,-225.5) translate(20.525 17.1)"/><use xlink:href="#H" transform="matrix(1,0,0,1,998.4808252928982,-225.5) translate(0 17.1)"/><use xlink:href="#d" transform="matrix(1,0,0,1,1120.2254174865443,-225.5) translate(0 17.1)"/><use xlink:href="#e" transform="matrix(1,0,0,1,925,-193.5) translate(20.525 17.1)"/><use xlink:href="#N" transform="matrix(1,0,0,1,998.4808252928982,-193.5) translate(0 17.1)"/><use xlink:href="#d" transform="matrix(1,0,0,1,1120.2254174865443,-193.5) translate(0 17.1)"/><use xlink:href="#e" transform="matrix(1,0,0,1,925,-161.5) translate(20.525 17.1)"/><use xlink:href="#R" transform="matrix(1,0,0,1,998.4808252928982,-161.5) translate(0 17.1)"/><use xlink:href="#d" transform="matrix(1,0,0,1,1120.2254174865443,-161.5) translate(0 17.1)"/><use xlink:href="#e" transform="matrix(1,0,0,1,925,-129.5) translate(20.525 17.1)"/><use xlink:href="#S" transform="matrix(1,0,0,1,998.4808252928982,-129.5) translate(0 17.1)"/><use xlink:href="#d" transform="matrix(1,0,0,1,1120.2254174865443,-129.5) translate(0 17.1)"/><use xlink:href="#s" transform="matrix(1,0,0,1,998.4808252928982,-97.5) translate(0 17.1)"/><use xlink:href="#o" transform="matrix(1,0,0,1,1120.2254174865443,-97.5) translate(0 17.1)"/><use xlink:href="#O" transform="matrix(1,0,0,1,998.4808252928982,-65.5) translate(0 17.1)"/><use xlink:href="#u" transform="matrix(1,0,0,1,1120.2254174865443,-65.5) translate(0 17.1)"/><path d="M880-212.14h-14.73a12 12 0 0 0-12 12v303.78a12 12 0 0 1-12 12h-34.72" stroke="#3a414a" fill="none"/><path d="M919.5-212.14h-20m10-10v20m-10-10c0 5.52-4.48 10-10 10s-10-4.48-10-10 4.48-10 10-10 10 4.48 10 10zM767.05 115.64h20m-10 10v-20m30 10c0 5.52-4.48 10-10 10-5.53 0-10-4.48-10-10 0-5.53 4.47-10 10-10 5.52 0 10 4.47 10 10z" stroke="#3a414a" fill="#fff"/><path d="M300-100.2h8a12 12 0 0 1 12 12v191.84a12 12 0 0 0 12 12h27.5" stroke="#3a414a" fill="none"/><path d="M260.5-100.2h20m-10 10v-20m30 10c0 5.5-4.48 10-10 10s-10-4.5-10-10c0-5.53 4.48-10 10-10s10 4.47 10 10z" stroke="#3a414a" fill="#fff"/><path d="M379.5 115.64h-20m10-10v20m-10-20v20M-159.5 328h17.5a12 12 0 0 0 12-12V-88.4a12 12 0 0 1 12-12h37.5" stroke="#3a414a" fill="none"/><path d="M-199.28 328h20m-20 10l20-10m-20-10l20 10m20 0c0 5.54-4.47 10-10 10-5.52 0-10-4.46-10-10 0-5.5 4.48-10 10-10 5.53 0 10 4.5 10 10z" stroke="#3a414a" fill="#fff"/><path d="M-60.5-100.4h-20m10-10v20m-10-20v20M1580.92 656.5v8a12 12 0 0 1-12 12H-138a12 12 0 0 1-12-12V369.62a9.5 9.5 0 0 0-9.5-9.5M1580.92 636.5v20m-10-10h20m-20 10h20" stroke="#3a414a" fill="none"/><path d="M-199.28 360.12h20m-20 10l20-10m-20-10l20 10m20 0c0 5.52-4.47 10-10 10-5.52 0-10-4.48-10-10s4.48-10 10-10c5.53 0 10 4.48 10 10z" stroke="#3a414a" fill="#fff"/><path d="M1340-55a5 5 0 0 1 5-5h350a5 5 0 0 1 5 5v254a5 5 0 0 1-5 5h-350a5 5 0 0 1-5-5z" fill="#fff"/><path d="M1340-20v-35a5 5 0 0 1 5-5h350a5 5 0 0 1 5 5v35" fill="#dedeff"/><path d="M1340-55a5 5 0 0 1 5-5h350a5 5 0 0 1 5 5v254a5 5 0 0 1-5 5h-350a5 5 0 0 1-5-5zM1340-20h360M1413.48-20v224M1535.4-20v224" stroke="#282c33" fill="none"/><use xlink:href="#T" transform="matrix(1,0,0,1,1350,-60) translate(0 23.6)"/><use xlink:href="#b" transform="matrix(1,0,0,1,1345,-17.5) translate(20 17.1)"/><use xlink:href="#S" transform="matrix(1,0,0,1,1418.4808252928983,-17.5) translate(0 17.1)"/><use xlink:href="#d" transform="matrix(1,0,0,1,1540.3931378985267,-17.5) translate(0 17.1)"/><use xlink:href="#e" transform="matrix(1,0,0,1,1345,14.5) translate(20.525 17.1)"/><use xlink:href="#w" transform="matrix(1,0,0,1,1418.4808252928983,14.5) translate(0 17.1)"/><use xlink:href="#d" transform="matrix(1,0,0,1,1540.3931378985267,14.5) translate(0 17.1)"/><use xlink:href="#U" transform="matrix(1,0,0,1,1418.4808252928983,46.5) translate(0 17.1)"/><use xlink:href="#i" transform="matrix(1,0,0,1,1540.3931378985267,46.5) translate(0 17.1)"/><use xlink:href="#C" transform="matrix(1,0,0,1,1540.3931378985267,46.5) translate(91.45 17.1)"/><use xlink:href="#V" transform="matrix(1,0,0,1,1418.4808252928983,78.5) translate(0 17.1)"/><use xlink:href="#i" transform="matrix(1,0,0,1,1540.3931378985267,78.5) translate(0 17.1)"/><use xlink:href="#C" transform="matrix(1,0,0,1,1540.3931378985267,78.5) translate(91.45 17.1)"/><use xlink:href="#W" transform="matrix(1,0,0,1,1418.4808252928983,110.5) translate(0 17.1)"/><use xlink:href="#i" transform="matrix(1,0,0,1,1540.3931378985267,110.5) translate(0 17.1)"/><use xlink:href="#z" transform="matrix(1,0,0,1,1540.3931378985267,110.5) translate(91.45 17.1)"/><use xlink:href="#X" transform="matrix(1,0,0,1,1418.4808252928983,142.5) translate(0 17.1)"/><use xlink:href="#i" transform="matrix(1,0,0,1,1540.3931378985267,142.5) translate(0 17.1)"/><use xlink:href="#C" transform="matrix(1,0,0,1,1540.3931378985267,142.5) translate(91.45 17.1)"/><use xlink:href="#Y" transform="matrix(1,0,0,1,1418.4808252928983,174.5) translate(0 17.1)"/><use xlink:href="#i" transform="matrix(1,0,0,1,1540.3931378985267,174.5) translate(0 17.1)"/><use xlink:href="#C" transform="matrix(1,0,0,1,1540.3931378985267,174.5) translate(91.45 17.1)"/><path d="M1280.5-180.04h648a12 12 0 0 1 12 12v551.78a12 12 0 0 1-12 12h-8" stroke="#3a414a" fill="none"/><path d="M1240.72-180.04h20m-20 10l20-10m-20-10l20 10m20 0c0 5.53-4.47 10-10 10-5.52 0-10-4.47-10-10 0-5.52 4.48-10 10-10 5.53 0 10 4.48 10 10z" stroke="#3a414a" fill="#fff"/><path d="M1900.5 395.74h20m-10 10v-20m10 20v-20M1920.5 395.74h8a12 12 0 0 0 12-12v-519.68a12 12 0 0 0-12-12h-648M1900.5 395.74h20m-10 10v-20m10 20v-20" stroke="#3a414a" fill="none"/><path d="M1240.72-147.94h20m-20 10l20-10m-20-10l20 10m20 0c0 5.53-4.47 10-10 10-5.52 0-10-4.47-10-10 0-5.52 4.48-10 10-10 5.53 0 10 4.48 10 10z" stroke="#3a414a" fill="#fff"/><path d="M1280-115.84a10 10 0 0 1 10 10V-16a12 12 0 0 0 12 12h17.5" stroke="#3a414a" fill="none"/><path d="M1240.5-115.84h20m-10 10v-20m30 10c0 5.53-4.48 10-10 10s-10-4.47-10-10c0-5.52 4.48-10 10-10s10 4.48 10 10z" stroke="#3a414a" fill="#fff"/><path d="M1339.5-4h-20m10-10V6m-10-20V6M1300 27.88a.5.5 0 0 0-.5.5V248a12 12 0 0 0 12 12h327.62a12 12 0 0 1 12 12v47.5" stroke="#3a414a" fill="none"/><path d="M1339.5 27.88h-20m10-10v20m-10-10c0 5.52-4.48 10-10 10s-10-4.48-10-10 4.48-10 10-10 10 4.48 10 10z" stroke="#3a414a" fill="#fff"/><path d="M1651.12 339.5v-20m10 10h-20m20-10h-20" stroke="#3a414a" fill="none"/><path d="M-20 165a5 5 0 0 1 5-5h310a5 5 0 0 1 5 5v126a5 5 0 0 1-5 5H-15a5 5 0 0 1-5-5z" fill="#fff"/><path d="M-20 200v-35a5 5 0 0 1 5-5h310a5 5 0 0 1 5 5v35" fill="#dedeff"/><path d="M-20 165a5 5 0 0 1 5-5h310a5 5 0 0 1 5 5v126a5 5 0 0 1-5 5H-15a5 5 0 0 1-5-5zM-20 200h320M42.95 200v96M150.77 200v96" stroke="#282c33" fill="none"/><use xlink:href="#Z" transform="matrix(1,0,0,1,-10,160) translate(0 23.6)"/><use xlink:href="#b" transform="matrix(1,0,0,1,-15,202.5) translate(14.5 17.1)"/><use xlink:href="#g" transform="matrix(1,0,0,1,47.95474672882244,202.5) translate(0 17.1)"/><use xlink:href="#d" transform="matrix(1,0,0,1,155.77375272483505,202.5) translate(0 17.1)"/><use xlink:href="#e" transform="matrix(1,0,0,1,-15,234.5) translate(15.024999999999999 17.1)"/><use xlink:href="#aa" transform="matrix(1,0,0,1,47.95474672882244,234.5) translate(0 17.1)"/><use xlink:href="#d" transform="matrix(1,0,0,1,155.77375272483505,234.5) translate(0 17.1)"/><use xlink:href="#h" transform="matrix(1,0,0,1,47.95474672882244,266.5) translate(0 17.1)"/><use xlink:href="#i" transform="matrix(1,0,0,1,155.77375272483505,266.5) translate(0 17.1)"/><use xlink:href="#j" transform="matrix(1,0,0,1,155.77375272483505,266.5) translate(91.45 17.1)"/><path d="M340 180.3V204a12 12 0 0 1-12 12h-7.5" stroke="#3a414a" fill="none"/><path d="M379.28 179.8l-20 .26m19.87-10.25l-19.87 10.26m20.12 9.75l-20.12-9.74m0 .13c0 5.5-4.48 10-10 10s-10-4.5-10-10c0-5.54 4.48-10 10-10s10 4.46 10 10z" stroke="#3a414a" fill="#fff"/><path d="M300.5 216h20m-10 10v-20m10 20v-20" stroke="#3a414a" fill="none"/><path d="M800 385a5 5 0 0 1 5-5h310a5 5 0 0 1 5 5v190a5 5 0 0 1-5 5H805a5 5 0 0 1-5-5z" fill="#fff"/><path d="M800 420v-35a5 5 0 0 1 5-5h310a5 5 0 0 1 5 5v35" fill="#dedeff"/><path d="M800 385a5 5 0 0 1 5-5h310a5 5 0 0 1 5 5v190a5 5 0 0 1-5 5H805a5 5 0 0 1-5-5zM800 420h320M862.96 420v160M1009.5 420v160" stroke="#282c33" fill="none"/><use xlink:href="#ab" transform="matrix(1,0,0,1,810,380) translate(0 23.6)"/><use xlink:href="#b" transform="matrix(1,0,0,1,805,422.5) translate(14.5 17.1)"/><use xlink:href="#ac" transform="matrix(1,0,0,1,867.9547467288224,422.5) translate(0 17.1)"/><use xlink:href="#d" transform="matrix(1,0,0,1,1014.5055724980093,422.5) translate(0 17.1)"/><use xlink:href="#e" transform="matrix(1,0,0,1,805,454.5) translate(15.024999999999999 17.1)"/><use xlink:href="#ad" transform="matrix(1,0,0,1,867.9547467288224,454.5) translate(0 17.1)"/><use xlink:href="#d" transform="matrix(1,0,0,1,1014.5055724980093,454.5) translate(0 17.1)"/><use xlink:href="#e" transform="matrix(1,0,0,1,805,486.5) translate(15.024999999999999 17.1)"/><use xlink:href="#H" transform="matrix(1,0,0,1,867.9547467288224,486.5) translate(0 17.1)"/><use xlink:href="#d" transform="matrix(1,0,0,1,1014.5055724980093,486.5) translate(0 17.1)"/><use xlink:href="#O" transform="matrix(1,0,0,1,867.9547467288224,518.5) translate(0 17.1)"/><use xlink:href="#u" transform="matrix(1,0,0,1,1014.5055724980093,518.5) translate(0 17.1)"/><use xlink:href="#ae" transform="matrix(1,0,0,1,867.9547467288224,550.5) translate(0 17.1)"/><use xlink:href="#o" transform="matrix(1,0,0,1,1014.5055724980093,550.5) translate(0 17.1)"/><path d="M1160.5 468H1318a12 12 0 0 0 12-12v-16.17a12 12 0 0 1 12-12h177.5" stroke="#3a414a" fill="none"/><path d="M1120.72 468h20m-20 10l20-10m-20-10l20 10m20 0c0 5.52-4.47 10-10 10-5.52 0-10-4.48-10-10s4.48-10 10-10c5.53 0 10 4.48 10 10z" stroke="#3a414a" fill="#fff"/><path d="M1539.5 427.83h-20m10-10v20m-10-20v20M760 500H585.27a12 12 0 0 1-12-12v-15.5" stroke="#3a414a" fill="none"/><path d="M799.5 500h-20m10-10v20m-10-10c0 5.52-4.48 10-10 10s-10-4.48-10-10 4.48-10 10-10 10 4.48 10 10z" stroke="#3a414a" fill="#fff"/><path d="M573.27 452.5v20m-10-10h20m-20 10h20" stroke="#3a414a" fill="none"/><path d="M80 805a5 5 0 0 1 5-5h290a5 5 0 0 1 5 5v190a5 5 0 0 1-5 5H85a5 5 0 0 1-5-5z" fill="#fff"/><path d="M80 840v-35a5 5 0 0 1 5-5h290a5 5 0 0 1 5 5v35" fill="#dedeff"/><path d="M80 805a5 5 0 0 1 5-5h290a5 5 0 0 1 5 5v190a5 5 0 0 1-5 5H85a5 5 0 0 1-5-5zM80 840h300M153.48 840v160M256.6 840v160" stroke="#282c33" fill="none"/><use xlink:href="#af" transform="matrix(1,0,0,1,90,800) translate(0 23.6)"/><use xlink:href="#b" transform="matrix(1,0,0,1,85,842.5) translate(20 17.1)"/><use xlink:href="#ag" transform="matrix(1,0,0,1,158.4808252928982,842.5) translate(0 17.1)"/><use xlink:href="#d" transform="matrix(1,0,0,1,261.5866202853208,842.5) translate(0 17.1)"/><use xlink:href="#e" transform="matrix(1,0,0,1,85,874.5) translate(20.525 17.1)"/><use xlink:href="#H" transform="matrix(1,0,0,1,158.4808252928982,874.5) translate(0 17.1)"/><use xlink:href="#d" transform="matrix(1,0,0,1,261.5866202853208,874.5) translate(0 17.1)"/><g><use xlink:href="#e" transform="matrix(1,0,0,1,85,906.5) translate(20.525 17.1)"/></g><g><use xlink:href="#ah" transform="matrix(1,0,0,1,158.4808252928982,906.5) translate(0 17.1)"/></g><g><use xlink:href="#d" transform="matrix(1,0,0,1,261.5866202853208,906.5) translate(0 17.1)"/></g><g><use xlink:href="#ai" transform="matrix(1,0,0,1,158.4808252928982,938.5) translate(0 17.1)"/></g><g><use xlink:href="#o" transform="matrix(1,0,0,1,261.5866202853208,938.5) translate(0 17.1)"/></g><g><use xlink:href="#aj" transform="matrix(1,0,0,1,158.4808252928982,970.5) translate(0 17.1)"/></g><g><use xlink:href="#u" transform="matrix(1,0,0,1,261.5866202853208,970.5) translate(0 17.1)"/></g><path d="M420.5 920H1708a12 12 0 0 0 12-12V656.5" stroke="#3a414a" fill="none"/><path d="M380.72 920h20m-20 10l20-10m-20-10l20 10m20 0c0 5.52-4.47 10-10 10-5.52 0-10-4.48-10-10s4.48-10 10-10c5.53 0 10 4.48 10 10z" stroke="#3a414a" fill="#fff"/><path d="M1720 636.5v20m-10-10h20m-20 10h20M420.5 888h17.76a12 12 0 0 0 12-12V472.5" stroke="#3a414a" fill="none"/><path d="M380.72 888h20m-20 10l20-10m-20-10l20 10m20 0c0 5.52-4.47 10-10 10-5.52 0-10-4.48-10-10s4.48-10 10-10c5.53 0 10 4.48 10 10z" stroke="#3a414a" fill="#fff"/><path d="M450.26 452.5v20m-10-10h20m-20 10h20" stroke="#3a414a" fill="none"/><defs><path fill="#333" d="M30 0v-248h33v221h125V0H30" id="ak"/><path fill="#333" d="M24-231v-30h32v30H24zM24 0v-190h32V0H24" id="al"/><path fill="#333" d="M135-143c-3-34-86-38-87 0 15 53 115 12 119 90S17 21 10-45l28-5c4 36 97 45 98 0-10-56-113-15-118-90-4-57 82-63 122-42 12 7 21 19 24 35" id="am"/><path fill="#333" d="M59-47c-2 24 18 29 38 22v24C64 9 27 4 27-40v-127H5v-23h24l9-43h21v43h35v23H59v120" id="an"/><path fill="#333" d="M117-194c89-4 53 116 60 194h-32v-121c0-31-8-49-39-48C34-167 62-67 57 0H25l-1-190h30c1 10-1 24 2 32 11-22 29-35 61-36" id="ao"/><path fill="#333" d="M177-190C167-65 218 103 67 71c-23-6-38-20-44-43l32-5c15 47 100 32 89-28v-30C133-14 115 1 83 1 29 1 15-40 15-95c0-56 16-97 71-98 29-1 48 16 59 35 1-10 0-23 2-32h30zM94-22c36 0 50-32 50-73 0-42-14-75-50-75-39 0-46 34-46 75s6 73 46 73" id="ap"/><g id="a"><use transform="matrix(0.05,0,0,0.05,0,0)" xlink:href="#ak"/><use transform="matrix(0.05,0,0,0.05,10,0)" xlink:href="#al"/><use transform="matrix(0.05,0,0,0.05,13.949999999999998,0)" xlink:href="#am"/><use transform="matrix(0.05,0,0,0.05,22.95,0)" xlink:href="#an"/><use transform="matrix(0.05,0,0,0.05,27.950000000000003,0)" xlink:href="#al"/><use transform="matrix(0.05,0,0,0.05,31.899999999999995,0)" xlink:href="#ao"/><use transform="matrix(0.05,0,0,0.05,41.9,0)" xlink:href="#ap"/></g><path d="M30-248c87 1 191-15 191 75 0 78-77 80-158 76V0H30v-248zm33 125c57 0 124 11 124-50 0-59-68-47-124-48v98" id="aq"/><path d="M194 0L95-120 63-95V0H30v-248h33v124l119-124h40L117-140 236 0h-42" id="ar"/><g id="b"><use transform="matrix(0.05,0,0,0.05,0,0)" xlink:href="#aq"/><use transform="matrix(0.05,0,0,0.05,12,0)" xlink:href="#ar"/></g><path fill="#333" d="M33 0v-248h34V0H33" id="as"/><path fill="#333" d="M30-248c118-7 216 8 213 122C240-48 200 0 122 0H30v-248zM63-27c89 8 146-16 146-99s-60-101-146-95v194" id="at"/><g id="c"><use transform="matrix(0.05,0,0,0.05,0,0)" xlink:href="#ak"/><use transform="matrix(0.05,0,0,0.05,10,0)" xlink:href="#al"/><use transform="matrix(0.05,0,0,0.05,13.949999999999998,0)" xlink:href="#am"/><use transform="matrix(0.05,0,0,0.05,22.95,0)" xlink:href="#al"/><use transform="matrix(0.05,0,0,0.05,26.899999999999995,0)" xlink:href="#ao"/><use transform="matrix(0.05,0,0,0.05,36.9,0)" xlink:href="#ap"/><use transform="matrix(0.05,0,0,0.05,46.9,0)" xlink:href="#as"/><use transform="matrix(0.05,0,0,0.05,51.900000000000006,0)" xlink:href="#at"/></g><path fill="#333" d="M160-131c35 5 61 23 61 61C221 17 115-2 30 0v-248c76 3 177-17 177 60 0 33-19 50-47 57zm-97-11c50-1 110 9 110-42 0-47-63-36-110-37v79zm0 115c55-2 124 14 124-45 0-56-70-42-124-44v89" id="au"/><path fill="#333" d="M143 4C61 4 22-44 18-125c-5-107 100-154 193-111 17 8 29 25 37 43l-32 9c-13-25-37-40-76-40-61 0-88 39-88 99 0 61 29 100 91 101 35 0 62-11 79-27v-45h-74v-28h105v86C228-13 192 4 143 4" id="av"/><path fill="#333" d="M190 0L58-211 59 0H30v-248h39L202-35l-2-213h31V0h-41" id="aw"/><path fill="#333" d="M127-220V0H93v-220H8v-28h204v28h-85" id="ax"/><g id="d"><use transform="matrix(0.05,0,0,0.05,0,0)" xlink:href="#au"/><use transform="matrix(0.05,0,0,0.05,12,0)" xlink:href="#as"/><use transform="matrix(0.05,0,0,0.05,17,0)" xlink:href="#av"/><use transform="matrix(0.05,0,0,0.05,31,0)" xlink:href="#as"/><use transform="matrix(0.05,0,0,0.05,36,0)" xlink:href="#aw"/><use transform="matrix(0.05,0,0,0.05,48.95,0)" xlink:href="#ax"/></g><path d="M63-220v92h138v28H63V0H30v-248h175v28H63" id="ay"/><g id="e"><use transform="matrix(0.05,0,0,0.05,0,0)" xlink:href="#ay"/><use transform="matrix(0.05,0,0,0.05,10.950000000000001,0)" xlink:href="#ar"/></g><path fill="#333" d="M140-251c81 0 123 46 123 126C263-46 219 4 140 4 59 4 17-45 17-125s42-126 123-126zm0 227c63 0 89-41 89-101s-29-99-89-99c-61 0-89 39-89 99S79-25 140-24" id="az"/><path fill="#333" d="M206 0h-36l-40-164L89 0H53L-1-190h32L70-26l43-164h34l41 164 42-164h31" id="aA"/><path fill="#333" d="M100-194c63 0 86 42 84 106H49c0 40 14 67 53 68 26 1 43-12 49-29l28 8c-11 28-37 45-77 45C44 4 14-33 15-96c1-61 26-98 85-98zm52 81c6-60-76-77-97-28-3 7-6 17-6 28h103" id="aB"/><path fill="#333" d="M114-163C36-179 61-72 57 0H25l-1-190h30c1 12-1 29 2 39 6-27 23-49 58-41v29" id="aC"/><g id="f"><use transform="matrix(0.05,0,0,0.05,0,0)" xlink:href="#az"/><use transform="matrix(0.05,0,0,0.05,14,0)" xlink:href="#aA"/><use transform="matrix(0.05,0,0,0.05,26.950000000000003,0)" xlink:href="#ao"/><use transform="matrix(0.05,0,0,0.05,36.95,0)" xlink:href="#aB"/><use transform="matrix(0.05,0,0,0.05,46.95,0)" xlink:href="#aC"/><use transform="matrix(0.05,0,0,0.05,52.900000000000006,0)" xlink:href="#as"/><use transform="matrix(0.05,0,0,0.05,57.900000000000006,0)" xlink:href="#at"/></g><path fill="#333" d="M212-179c-10-28-35-45-73-45-59 0-87 40-87 99 0 60 29 101 89 101 43 0 62-24 78-52l27 14C228-24 195 4 139 4 59 4 22-46 18-125c-6-104 99-153 187-111 19 9 31 26 39 46" id="aD"/><path fill="#333" d="M141-36C126-15 110 5 73 4 37 3 15-17 15-53c-1-64 63-63 125-63 3-35-9-54-41-54-24 1-41 7-42 31l-33-3c5-37 33-52 76-52 45 0 72 20 72 64v82c-1 20 7 32 28 27v20c-31 9-61-2-59-35zM48-53c0 20 12 33 32 33 41-3 63-29 60-74-43 2-92-5-92 41" id="aE"/><path fill="#333" d="M100-194c62-1 85 37 85 99 1 63-27 99-86 99S16-35 15-95c0-66 28-99 85-99zM99-20c44 1 53-31 53-75 0-43-8-75-51-75s-53 32-53 75 10 74 51 75" id="aF"/><path fill="#333" d="M179-190L93 31C79 59 56 82 12 73V49c39 6 53-20 64-50L1-190h34L92-34l54-156h33" id="aG"/><g id="g"><use transform="matrix(0.05,0,0,0.05,0,0)" xlink:href="#aD"/><use transform="matrix(0.05,0,0,0.05,12.950000000000001,0)" xlink:href="#aE"/><use transform="matrix(0.05,0,0,0.05,22.950000000000003,0)" xlink:href="#an"/><use transform="matrix(0.05,0,0,0.05,27.950000000000003,0)" xlink:href="#aB"/><use transform="matrix(0.05,0,0,0.05,37.95,0)" xlink:href="#ap"/><use transform="matrix(0.05,0,0,0.05,47.95,0)" xlink:href="#aF"/><use transform="matrix(0.05,0,0,0.05,57.95,0)" xlink:href="#aC"/><use transform="matrix(0.05,0,0,0.05,63.900000000000006,0)" xlink:href="#aG"/><use transform="matrix(0.05,0,0,0.05,72.9,0)" xlink:href="#as"/><use transform="matrix(0.05,0,0,0.05,77.9,0)" xlink:href="#at"/></g><path fill="#333" d="M24 0v-261h32V0H24" id="aH"/><g id="h"><use transform="matrix(0.05,0,0,0.05,0,0)" xlink:href="#ax"/><use transform="matrix(0.05,0,0,0.05,10.3,0)" xlink:href="#al"/><use transform="matrix(0.05,0,0,0.05,14.25,0)" xlink:href="#an"/><use transform="matrix(0.05,0,0,0.05,19.25,0)" xlink:href="#aH"/><use transform="matrix(0.05,0,0,0.05,23.2,0)" xlink:href="#aB"/></g><path fill="#333" d="M137 0h-34L2-248h35l83 218 83-218h36" id="aI"/><path fill="#333" d="M205 0l-28-72H64L36 0H1l101-248h38L239 0h-34zm-38-99l-47-123c-12 45-31 82-46 123h93" id="aJ"/><path fill="#333" d="M233-177c-1 41-23 64-60 70L243 0h-38l-65-103H63V0H30v-248c88 3 205-21 203 71zM63-129c60-2 137 13 137-47 0-61-80-42-137-45v92" id="aK"/><path fill="#333" d="M197 0v-115H63V0H30v-248h33v105h134v-105h34V0h-34" id="aL"/><g id="i"><use transform="matrix(0.05,0,0,0.05,0,0)" xlink:href="#aI"/><use transform="matrix(0.05,0,0,0.05,10.65,0)" xlink:href="#aJ"/><use transform="matrix(0.05,0,0,0.05,22.65,0)" xlink:href="#aK"/><use transform="matrix(0.05,0,0,0.05,35.6,0)" xlink:href="#aD"/><use transform="matrix(0.05,0,0,0.05,48.550000000000004,0)" xlink:href="#aL"/><use transform="matrix(0.05,0,0,0.05,61.5,0)" xlink:href="#aJ"/><use transform="matrix(0.05,0,0,0.05,73.5,0)" xlink:href="#aK"/></g><path fill="#333" d="M87 75C49 33 22-17 22-94c0-76 28-126 65-167h31c-38 41-64 92-64 168S80 34 118 75H87" id="aM"/><path fill="#333" d="M101-251c82-7 93 87 43 132L82-64C71-53 59-42 53-27h129V0H18c2-99 128-94 128-182 0-28-16-43-45-43s-46 15-49 41l-32-3c6-41 34-60 81-64" id="aN"/><path fill="#333" d="M101-251c68 0 85 55 85 127S166 4 100 4C33 4 14-52 14-124c0-73 17-127 87-127zm-1 229c47 0 54-49 54-102s-4-102-53-102c-51 0-55 48-55 102 0 53 5 102 54 102" id="aO"/><path fill="#333" d="M33-261c38 41 65 92 65 168S71 34 33 75H2C39 34 66-17 66-93S39-220 2-261h31" id="aP"/><g id="j"><use transform="matrix(0.05,0,0,0.05,0,0)" xlink:href="#aM"/><use transform="matrix(0.05,0,0,0.05,5.95,0)" xlink:href="#aN"/><use transform="matrix(0.05,0,0,0.05,15.949999999999998,0)" xlink:href="#aO"/><use transform="matrix(0.05,0,0,0.05,25.950000000000003,0)" xlink:href="#aO"/><use transform="matrix(0.05,0,0,0.05,35.95,0)" xlink:href="#aP"/></g><path fill="#333" d="M30-248c87 1 191-15 191 75 0 78-77 80-158 76V0H30v-248zm33 125c57 0 124 11 124-50 0-59-68-47-124-48v98" id="aQ"/><path fill="#333" d="M96-169c-40 0-48 33-48 73s9 75 48 75c24 0 41-14 43-38l32 2c-6 37-31 61-74 61-59 0-76-41-82-99-10-93 101-131 147-64 4 7 5 14 7 22l-32 3c-4-21-16-35-41-35" id="aR"/><g id="k"><use transform="matrix(0.05,0,0,0.05,0,0)" xlink:href="#aQ"/><use transform="matrix(0.05,0,0,0.05,12,0)" xlink:href="#aC"/><use transform="matrix(0.05,0,0,0.05,17.95,0)" xlink:href="#al"/><use transform="matrix(0.05,0,0,0.05,21.9,0)" xlink:href="#aR"/><use transform="matrix(0.05,0,0,0.05,30.899999999999995,0)" xlink:href="#aB"/></g><path fill="#333" d="M115-194c55 1 70 41 70 98S169 2 115 4C84 4 66-9 55-30l1 105H24l-1-265h31l2 30c10-21 28-34 59-34zm-8 174c40 0 45-34 45-75s-6-73-45-74c-42 0-51 32-51 76 0 43 10 73 51 73" id="aS"/><g id="l"><use transform="matrix(0.05,0,0,0.05,0,0)" xlink:href="#at"/><use transform="matrix(0.05,0,0,0.05,12.950000000000001,0)" xlink:href="#aB"/><use transform="matrix(0.05,0,0,0.05,22.950000000000003,0)" xlink:href="#am"/><use transform="matrix(0.05,0,0,0.05,31.950000000000003,0)" xlink:href="#aR"/><use transform="matrix(0.05,0,0,0.05,40.95,0)" xlink:href="#aC"/><use transform="matrix(0.05,0,0,0.05,46.900000000000006,0)" xlink:href="#al"/><use transform="matrix(0.05,0,0,0.05,50.85000000000001,0)" xlink:href="#aS"/><use transform="matrix(0.05,0,0,0.05,60.85,0)" xlink:href="#an"/><use transform="matrix(0.05,0,0,0.05,65.85000000000001,0)" xlink:href="#al"/><use transform="matrix(0.05,0,0,0.05,69.80000000000001,0)" xlink:href="#aF"/><use transform="matrix(0.05,0,0,0.05,79.80000000000001,0)" xlink:href="#ao"/></g><path fill="#333" d="M27 0v-27h64v-190l-56 39v-29l58-41h29v221h61V0H27" id="aT"/><g id="m"><use transform="matrix(0.05,0,0,0.05,0,0)" xlink:href="#aM"/><use transform="matrix(0.05,0,0,0.05,5.95,0)" xlink:href="#aT"/><use transform="matrix(0.05,0,0,0.05,15.949999999999998,0)" xlink:href="#aO"/><use transform="matrix(0.05,0,0,0.05,25.950000000000003,0)" xlink:href="#aO"/><use transform="matrix(0.05,0,0,0.05,35.95,0)" xlink:href="#aO"/><use transform="matrix(0.05,0,0,0.05,45.95,0)" xlink:href="#aP"/></g><path fill="#333" d="M185-189c-5-48-123-54-124 2 14 75 158 14 163 119 3 78-121 87-175 55-17-10-28-26-33-46l33-7c5 56 141 63 141-1 0-78-155-14-162-118-5-82 145-84 179-34 5 7 8 16 11 25" id="aU"/><path fill="#333" d="M240 0l2-218c-23 76-54 145-80 218h-23L58-218 59 0H30v-248h44l77 211c21-75 51-140 76-211h43V0h-30" id="aV"/><path fill="#333" d="M85-194c31 0 48 13 60 33l-1-100h32l1 261h-30c-2-10 0-23-3-31C134-8 116 4 85 4 32 4 16-35 15-94c0-66 23-100 70-100zm9 24c-40 0-46 34-46 75 0 40 6 74 45 74 42 0 51-32 51-76 0-42-9-74-50-73" id="aW"/><g id="n"><use transform="matrix(0.05,0,0,0.05,0,0)" xlink:href="#aU"/><use transform="matrix(0.05,0,0,0.05,12,0)" xlink:href="#aB"/><use transform="matrix(0.05,0,0,0.05,22,0)" xlink:href="#aH"/><use transform="matrix(0.05,0,0,0.05,25.950000000000003,0)" xlink:href="#aH"/><use transform="matrix(0.05,0,0,0.05,29.899999999999995,0)" xlink:href="#aV"/><use transform="matrix(0.05,0,0,0.05,44.85,0)" xlink:href="#aF"/><use transform="matrix(0.05,0,0,0.05,54.85,0)" xlink:href="#aW"/><use transform="matrix(0.05,0,0,0.05,64.85,0)" xlink:href="#aB"/><use transform="matrix(0.05,0,0,0.05,74.85,0)" xlink:href="#aH"/></g><g id="o"><use transform="matrix(0.05,0,0,0.05,0,0)" xlink:href="#as"/><use transform="matrix(0.05,0,0,0.05,5,0)" xlink:href="#aw"/><use transform="matrix(0.05,0,0,0.05,17.950000000000003,0)" xlink:href="#ax"/></g><path fill="#333" d="M210-169c-67 3-38 105-44 169h-31v-121c0-29-5-50-35-48C34-165 62-65 56 0H25l-1-190h30c1 10-1 24 2 32 10-44 99-50 107 0 11-21 27-35 58-36 85-2 47 119 55 194h-31v-121c0-29-5-49-35-48" id="aX"/><path fill="#333" d="M84 4C-5 8 30-112 23-190h32v120c0 31 7 50 39 49 72-2 45-101 50-169h31l1 190h-30c-1-10 1-25-2-33-11 22-28 36-60 37" id="aY"/><g id="p"><use transform="matrix(0.05,0,0,0.05,0,0)" xlink:href="#as"/><use transform="matrix(0.05,0,0,0.05,5,0)" xlink:href="#aX"/><use transform="matrix(0.05,0,0,0.05,19.950000000000003,0)" xlink:href="#aE"/><use transform="matrix(0.05,0,0,0.05,29.950000000000003,0)" xlink:href="#ap"/><use transform="matrix(0.05,0,0,0.05,39.95,0)" xlink:href="#aB"/><use transform="matrix(0.05,0,0,0.05,49.95,0)" xlink:href="#aU"/><use transform="matrix(0.05,0,0,0.05,61.95,0)" xlink:href="#aF"/><use transform="matrix(0.05,0,0,0.05,71.95,0)" xlink:href="#aY"/><use transform="matrix(0.05,0,0,0.05,81.95,0)" xlink:href="#aC"/><use transform="matrix(0.05,0,0,0.05,87.9,0)" xlink:href="#aR"/><use transform="matrix(0.05,0,0,0.05,96.9,0)" xlink:href="#aB"/></g><path fill="#333" d="M26 75v-336h71v23H56V52h41v23H26" id="aZ"/><path fill="#333" d="M3 75V52h41v-290H3v-23h71V75H3" id="ba"/><g id="q"><use transform="matrix(0.05,0,0,0.05,0,0)" xlink:href="#aZ"/><use transform="matrix(0.05,0,0,0.05,5,0)" xlink:href="#ba"/><use transform="matrix(0.05,0,0,0.05,10,0)" xlink:href="#aI"/><use transform="matrix(0.05,0,0,0.05,20.65,0)" xlink:href="#aJ"/><use transform="matrix(0.05,0,0,0.05,32.65,0)" xlink:href="#aK"/><use transform="matrix(0.05,0,0,0.05,45.6,0)" xlink:href="#aD"/><use transform="matrix(0.05,0,0,0.05,58.550000000000004,0)" xlink:href="#aL"/><use transform="matrix(0.05,0,0,0.05,71.5,0)" xlink:href="#aJ"/><use transform="matrix(0.05,0,0,0.05,83.5,0)" xlink:href="#aK"/></g><g id="r"><use transform="matrix(0.05,0,0,0.05,0,0)" xlink:href="#aK"/><use transform="matrix(0.05,0,0,0.05,12.950000000000001,0)" xlink:href="#aE"/><use transform="matrix(0.05,0,0,0.05,22.950000000000003,0)" xlink:href="#an"/><use transform="matrix(0.05,0,0,0.05,27.950000000000003,0)" xlink:href="#al"/><use transform="matrix(0.05,0,0,0.05,31.900000000000002,0)" xlink:href="#ao"/><use transform="matrix(0.05,0,0,0.05,41.900000000000006,0)" xlink:href="#ap"/></g><g id="s"><use transform="matrix(0.05,0,0,0.05,0,0)" xlink:href="#aU"/><use transform="matrix(0.05,0,0,0.05,12,0)" xlink:href="#an"/><use transform="matrix(0.05,0,0,0.05,17,0)" xlink:href="#aE"/><use transform="matrix(0.05,0,0,0.05,27,0)" xlink:href="#an"/><use transform="matrix(0.05,0,0,0.05,32,0)" xlink:href="#aY"/><use transform="matrix(0.05,0,0,0.05,42,0)" xlink:href="#am"/></g><path fill="#333" d="M115-194c53 0 69 39 70 98 0 66-23 100-70 100C84 3 66-7 56-30L54 0H23l1-261h32v101c10-23 28-34 59-34zm-8 174c40 0 45-34 45-75 0-40-5-75-45-74-42 0-51 32-51 76 0 43 10 73 51 73" id="bb"/><g id="t"><use transform="matrix(0.05,0,0,0.05,0,0)" xlink:href="#aQ"/><use transform="matrix(0.05,0,0,0.05,12,0)" xlink:href="#aY"/><use transform="matrix(0.05,0,0,0.05,22,0)" xlink:href="#bb"/><use transform="matrix(0.05,0,0,0.05,32,0)" xlink:href="#aH"/><use transform="matrix(0.05,0,0,0.05,35.95,0)" xlink:href="#al"/><use transform="matrix(0.05,0,0,0.05,39.900000000000006,0)" xlink:href="#aR"/><use transform="matrix(0.05,0,0,0.05,48.900000000000006,0)" xlink:href="#aE"/><use transform="matrix(0.05,0,0,0.05,58.900000000000006,0)" xlink:href="#an"/><use transform="matrix(0.05,0,0,0.05,63.900000000000006,0)" xlink:href="#al"/><use transform="matrix(0.05,0,0,0.05,67.85000000000001,0)" xlink:href="#aF"/><use transform="matrix(0.05,0,0,0.05,77.85000000000001,0)" xlink:href="#ao"/><use transform="matrix(0.05,0,0,0.05,87.85000000000001,0)" xlink:href="#at"/><use transform="matrix(0.05,0,0,0.05,100.80000000000001,0)" xlink:href="#aE"/><use transform="matrix(0.05,0,0,0.05,110.80000000000001,0)" xlink:href="#an"/><use transform="matrix(0.05,0,0,0.05,115.80000000000001,0)" xlink:href="#aB"/></g><path fill="#333" d="M30 0v-248h187v28H63v79h144v27H63v87h162V0H30" id="bc"/><g id="u"><use transform="matrix(0.05,0,0,0.05,0,0)" xlink:href="#ax"/><use transform="matrix(0.05,0,0,0.05,10.950000000000001,0)" xlink:href="#as"/><use transform="matrix(0.05,0,0,0.05,15.950000000000001,0)" xlink:href="#aV"/><use transform="matrix(0.05,0,0,0.05,30.900000000000002,0)" xlink:href="#bc"/><use transform="matrix(0.05,0,0,0.05,42.900000000000006,0)" xlink:href="#aU"/><use transform="matrix(0.05,0,0,0.05,54.900000000000006,0)" xlink:href="#ax"/><use transform="matrix(0.05,0,0,0.05,64.5,0)" xlink:href="#aJ"/><use transform="matrix(0.05,0,0,0.05,76.5,0)" xlink:href="#aV"/><use transform="matrix(0.05,0,0,0.05,91.45,0)" xlink:href="#aQ"/></g><path fill="#333" d="M101-234c-31-9-42 10-38 44h38v23H63V0H32v-167H5v-23h27c-7-52 17-82 69-68v24" id="bd"/><g id="v"><use transform="matrix(0.05,0,0,0.05,0,0)" xlink:href="#aQ"/><use transform="matrix(0.05,0,0,0.05,12,0)" xlink:href="#aC"/><use transform="matrix(0.05,0,0,0.05,17.95,0)" xlink:href="#aF"/><use transform="matrix(0.05,0,0,0.05,27.950000000000003,0)" xlink:href="#bd"/><use transform="matrix(0.05,0,0,0.05,32.95,0)" xlink:href="#al"/><use transform="matrix(0.05,0,0,0.05,36.900000000000006,0)" xlink:href="#aH"/><use transform="matrix(0.05,0,0,0.05,40.85000000000001,0)" xlink:href="#aB"/></g><g id="w"><use transform="matrix(0.05,0,0,0.05,0,0)" xlink:href="#aQ"/><use transform="matrix(0.05,0,0,0.05,12,0)" xlink:href="#aC"/><use transform="matrix(0.05,0,0,0.05,17.95,0)" xlink:href="#aF"/><use transform="matrix(0.05,0,0,0.05,27.950000000000003,0)" xlink:href="#bd"/><use transform="matrix(0.05,0,0,0.05,32.95,0)" xlink:href="#al"/><use transform="matrix(0.05,0,0,0.05,36.900000000000006,0)" xlink:href="#aH"/><use transform="matrix(0.05,0,0,0.05,40.85000000000001,0)" xlink:href="#aB"/><use transform="matrix(0.05,0,0,0.05,50.85000000000001,0)" xlink:href="#as"/><use transform="matrix(0.05,0,0,0.05,55.85,0)" xlink:href="#at"/></g><path d="M232-93c-1 65-40 97-104 97C67 4 28-28 28-90v-158h33c8 89-33 224 67 224 102 0 64-133 71-224h33v155" id="be"/><g id="x"><use transform="matrix(0.05,0,0,0.05,0,0)" xlink:href="#be"/><use transform="matrix(0.05,0,0,0.05,12.950000000000001,0)" xlink:href="#ar"/></g><path fill="#333" d="M232-93c-1 65-40 97-104 97C67 4 28-28 28-90v-158h33c8 89-33 224 67 224 102 0 64-133 71-224h33v155" id="bf"/><g id="y"><use transform="matrix(0.05,0,0,0.05,0,0)" xlink:href="#bf"/><use transform="matrix(0.05,0,0,0.05,12.950000000000001,0)" xlink:href="#am"/><use transform="matrix(0.05,0,0,0.05,21.950000000000003,0)" xlink:href="#aB"/><use transform="matrix(0.05,0,0,0.05,31.950000000000003,0)" xlink:href="#aC"/><use transform="matrix(0.05,0,0,0.05,37.900000000000006,0)" xlink:href="#ao"/><use transform="matrix(0.05,0,0,0.05,47.900000000000006,0)" xlink:href="#aE"/><use transform="matrix(0.05,0,0,0.05,57.900000000000006,0)" xlink:href="#aX"/><use transform="matrix(0.05,0,0,0.05,72.85000000000001,0)" xlink:href="#aB"/></g><g id="z"><use transform="matrix(0.05,0,0,0.05,0,0)" xlink:href="#aM"/><use transform="matrix(0.05,0,0,0.05,5.95,0)" xlink:href="#aT"/><use transform="matrix(0.05,0,0,0.05,15.949999999999998,0)" xlink:href="#aO"/><use transform="matrix(0.05,0,0,0.05,25.950000000000003,0)" xlink:href="#aO"/><use transform="matrix(0.05,0,0,0.05,35.95,0)" xlink:href="#aP"/></g><path fill="#333" d="M106-169C34-169 62-67 57 0H25v-261h32l-1 103c12-21 28-36 61-36 89 0 53 116 60 194h-32v-121c2-32-8-49-39-48" id="bg"/><g id="A"><use transform="matrix(0.05,0,0,0.05,0,0)" xlink:href="#aQ"/><use transform="matrix(0.05,0,0,0.05,12,0)" xlink:href="#aE"/><use transform="matrix(0.05,0,0,0.05,22,0)" xlink:href="#am"/><use transform="matrix(0.05,0,0,0.05,31,0)" xlink:href="#am"/><use transform="matrix(0.05,0,0,0.05,40,0)" xlink:href="#aA"/><use transform="matrix(0.05,0,0,0.05,52.95,0)" xlink:href="#aF"/><use transform="matrix(0.05,0,0,0.05,62.95,0)" xlink:href="#aC"/><use transform="matrix(0.05,0,0,0.05,68.9,0)" xlink:href="#aW"/><use transform="matrix(0.05,0,0,0.05,78.9,0)" xlink:href="#aL"/><use transform="matrix(0.05,0,0,0.05,91.85000000000001,0)" xlink:href="#aE"/><use transform="matrix(0.05,0,0,0.05,101.85000000000001,0)" xlink:href="#am"/><use transform="matrix(0.05,0,0,0.05,110.85000000000001,0)" xlink:href="#bg"/></g><g id="B"><use transform="matrix(0.05,0,0,0.05,0,0)" xlink:href="#aQ"/><use transform="matrix(0.05,0,0,0.05,12,0)" xlink:href="#bg"/><use transform="matrix(0.05,0,0,0.05,22,0)" xlink:href="#aF"/><use transform="matrix(0.05,0,0,0.05,32,0)" xlink:href="#ao"/><use transform="matrix(0.05,0,0,0.05,42,0)" xlink:href="#aB"/></g><path fill="#333" d="M54-142c48-35 137-8 131 61C196 18 31 33 14-55l32-4c7 23 22 37 52 37 35-1 51-22 54-58 4-55-73-65-99-34H22l8-134h141v27H59" id="bh"/><g id="C"><use transform="matrix(0.05,0,0,0.05,0,0)" xlink:href="#aM"/><use transform="matrix(0.05,0,0,0.05,5.95,0)" xlink:href="#bh"/><use transform="matrix(0.05,0,0,0.05,15.949999999999998,0)" xlink:href="#aO"/><use transform="matrix(0.05,0,0,0.05,25.950000000000003,0)" xlink:href="#aP"/></g><g id="D"><use transform="matrix(0.05,0,0,0.05,0,0)" xlink:href="#bc"/><use transform="matrix(0.05,0,0,0.05,12,0)" xlink:href="#aX"/><use transform="matrix(0.05,0,0,0.05,26.950000000000003,0)" xlink:href="#aE"/><use transform="matrix(0.05,0,0,0.05,36.95,0)" xlink:href="#al"/><use transform="matrix(0.05,0,0,0.05,40.900000000000006,0)" xlink:href="#aH"/></g><g id="E"><use transform="matrix(0.05,0,0,0.05,0,0)" xlink:href="#aK"/><use transform="matrix(0.05,0,0,0.05,12.950000000000001,0)" xlink:href="#aB"/><use transform="matrix(0.05,0,0,0.05,22.950000000000003,0)" xlink:href="#ap"/><use transform="matrix(0.05,0,0,0.05,32.95,0)" xlink:href="#al"/><use transform="matrix(0.05,0,0,0.05,36.900000000000006,0)" xlink:href="#am"/><use transform="matrix(0.05,0,0,0.05,45.900000000000006,0)" xlink:href="#an"/><use transform="matrix(0.05,0,0,0.05,50.900000000000006,0)" xlink:href="#aC"/><use transform="matrix(0.05,0,0,0.05,56.85,0)" xlink:href="#aE"/><use transform="matrix(0.05,0,0,0.05,66.85000000000001,0)" xlink:href="#an"/><use transform="matrix(0.05,0,0,0.05,71.85000000000001,0)" xlink:href="#al"/><use transform="matrix(0.05,0,0,0.05,75.80000000000001,0)" xlink:href="#aF"/><use transform="matrix(0.05,0,0,0.05,85.80000000000001,0)" xlink:href="#ao"/><use transform="matrix(0.05,0,0,0.05,95.80000000000001,0)" xlink:href="#at"/><use transform="matrix(0.05,0,0,0.05,108.75,0)" xlink:href="#aE"/><use transform="matrix(0.05,0,0,0.05,118.75,0)" xlink:href="#an"/><use transform="matrix(0.05,0,0,0.05,123.75,0)" xlink:href="#aB"/></g><g id="F"><use transform="matrix(0.05,0,0,0.05,0,0)" xlink:href="#aJ"/><use transform="matrix(0.05,0,0,0.05,12,0)" xlink:href="#aY"/><use transform="matrix(0.05,0,0,0.05,22,0)" xlink:href="#aR"/><use transform="matrix(0.05,0,0,0.05,31,0)" xlink:href="#an"/><use transform="matrix(0.05,0,0,0.05,36,0)" xlink:href="#al"/><use transform="matrix(0.05,0,0,0.05,39.95,0)" xlink:href="#aF"/><use transform="matrix(0.05,0,0,0.05,49.95,0)" xlink:href="#ao"/></g><g id="G"><use transform="matrix(0.05,0,0,0.05,0,0)" xlink:href="#aJ"/><use transform="matrix(0.05,0,0,0.05,12,0)" xlink:href="#aY"/><use transform="matrix(0.05,0,0,0.05,22,0)" xlink:href="#aR"/><use transform="matrix(0.05,0,0,0.05,31,0)" xlink:href="#an"/><use transform="matrix(0.05,0,0,0.05,36,0)" xlink:href="#al"/><use transform="matrix(0.05,0,0,0.05,39.95,0)" xlink:href="#aF"/><use transform="matrix(0.05,0,0,0.05,49.95,0)" xlink:href="#ao"/><use transform="matrix(0.05,0,0,0.05,59.95,0)" xlink:href="#as"/><use transform="matrix(0.05,0,0,0.05,64.95,0)" xlink:href="#at"/></g><g id="H"><use transform="matrix(0.05,0,0,0.05,0,0)" xlink:href="#ak"/><use transform="matrix(0.05,0,0,0.05,10,0)" xlink:href="#al"/><use transform="matrix(0.05,0,0,0.05,13.949999999999998,0)" xlink:href="#am"/><use transform="matrix(0.05,0,0,0.05,22.95,0)" xlink:href="#an"/><use transform="matrix(0.05,0,0,0.05,27.950000000000003,0)" xlink:href="#al"/><use transform="matrix(0.05,0,0,0.05,31.899999999999995,0)" xlink:href="#ao"/><use transform="matrix(0.05,0,0,0.05,41.9,0)" xlink:href="#ap"/><use transform="matrix(0.05,0,0,0.05,51.900000000000006,0)" xlink:href="#as"/><use transform="matrix(0.05,0,0,0.05,56.900000000000006,0)" xlink:href="#at"/></g><g id="I"><use transform="matrix(0.05,0,0,0.05,0,0)" xlink:href="#ak"/><use transform="matrix(0.05,0,0,0.05,10,0)" xlink:href="#aE"/><use transform="matrix(0.05,0,0,0.05,20,0)" xlink:href="#am"/><use transform="matrix(0.05,0,0,0.05,29,0)" xlink:href="#an"/><use transform="matrix(0.05,0,0,0.05,34,0)" xlink:href="#au"/><use transform="matrix(0.05,0,0,0.05,46,0)" xlink:href="#al"/><use transform="matrix(0.05,0,0,0.05,49.95,0)" xlink:href="#aW"/><use transform="matrix(0.05,0,0,0.05,59.95,0)" xlink:href="#as"/><use transform="matrix(0.05,0,0,0.05,64.95,0)" xlink:href="#at"/></g><g id="J"><use transform="matrix(0.05,0,0,0.05,0,0)" xlink:href="#aD"/><use transform="matrix(0.05,0,0,0.05,12.950000000000001,0)" xlink:href="#aY"/><use transform="matrix(0.05,0,0,0.05,22.950000000000003,0)" xlink:href="#aC"/><use transform="matrix(0.05,0,0,0.05,28.900000000000002,0)" xlink:href="#aC"/><use transform="matrix(0.05,0,0,0.05,34.85,0)" xlink:href="#aB"/><use transform="matrix(0.05,0,0,0.05,44.85,0)" xlink:href="#ao"/><use transform="matrix(0.05,0,0,0.05,54.85,0)" xlink:href="#an"/><use transform="matrix(0.05,0,0,0.05,59.85,0)" xlink:href="#aQ"/><use transform="matrix(0.05,0,0,0.05,71.85,0)" xlink:href="#aC"/><use transform="matrix(0.05,0,0,0.05,77.8,0)" xlink:href="#al"/><use transform="matrix(0.05,0,0,0.05,81.75,0)" xlink:href="#aR"/><use transform="matrix(0.05,0,0,0.05,90.75,0)" xlink:href="#aB"/></g><g id="K"><use transform="matrix(0.05,0,0,0.05,0,0)" xlink:href="#aU"/><use transform="matrix(0.05,0,0,0.05,12,0)" xlink:href="#an"/><use transform="matrix(0.05,0,0,0.05,17,0)" xlink:href="#aB"/><use transform="matrix(0.05,0,0,0.05,27,0)" xlink:href="#aS"/></g><g id="L"><use transform="matrix(0.05,0,0,0.05,0,0)" xlink:href="#au"/><use transform="matrix(0.05,0,0,0.05,12,0)" xlink:href="#al"/><use transform="matrix(0.05,0,0,0.05,15.949999999999998,0)" xlink:href="#aW"/></g><g id="M"><use transform="matrix(0.05,0,0,0.05,0,0)" xlink:href="#au"/><use transform="matrix(0.05,0,0,0.05,12,0)" xlink:href="#al"/><use transform="matrix(0.05,0,0,0.05,15.949999999999998,0)" xlink:href="#aW"/><use transform="matrix(0.05,0,0,0.05,25.950000000000003,0)" xlink:href="#as"/><use transform="matrix(0.05,0,0,0.05,30.950000000000003,0)" xlink:href="#at"/></g><g id="N"><use transform="matrix(0.05,0,0,0.05,0,0)" xlink:href="#au"/><use transform="matrix(0.05,0,0,0.05,12,0)" xlink:href="#aY"/><use transform="matrix(0.05,0,0,0.05,22,0)" xlink:href="#aG"/><use transform="matrix(0.05,0,0,0.05,31,0)" xlink:href="#aB"/><use transform="matrix(0.05,0,0,0.05,41,0)" xlink:href="#aC"/><use transform="matrix(0.05,0,0,0.05,46.95,0)" xlink:href="#as"/><use transform="matrix(0.05,0,0,0.05,51.95,0)" xlink:href="#at"/></g><g id="O"><use transform="matrix(0.05,0,0,0.05,0,0)" xlink:href="#aD"/><use transform="matrix(0.05,0,0,0.05,12.950000000000001,0)" xlink:href="#aC"/><use transform="matrix(0.05,0,0,0.05,18.900000000000002,0)" xlink:href="#aB"/><use transform="matrix(0.05,0,0,0.05,28.900000000000002,0)" xlink:href="#aE"/><use transform="matrix(0.05,0,0,0.05,38.900000000000006,0)" xlink:href="#an"/><use transform="matrix(0.05,0,0,0.05,43.900000000000006,0)" xlink:href="#aB"/><use transform="matrix(0.05,0,0,0.05,53.900000000000006,0)" xlink:href="#aW"/><use transform="matrix(0.05,0,0,0.05,63.900000000000006,0)" xlink:href="#aJ"/><use transform="matrix(0.05,0,0,0.05,75.9,0)" xlink:href="#an"/></g><g id="P"><use transform="matrix(0.05,0,0,0.05,0,0)" xlink:href="#az"/><use transform="matrix(0.05,0,0,0.05,14,0)" xlink:href="#aC"/><use transform="matrix(0.05,0,0,0.05,19.95,0)" xlink:href="#aW"/><use transform="matrix(0.05,0,0,0.05,29.950000000000003,0)" xlink:href="#aB"/><use transform="matrix(0.05,0,0,0.05,39.95,0)" xlink:href="#aC"/></g><g id="Q"><use transform="matrix(0.05,0,0,0.05,0,0)" xlink:href="#az"/><use transform="matrix(0.05,0,0,0.05,14,0)" xlink:href="#aC"/><use transform="matrix(0.05,0,0,0.05,19.95,0)" xlink:href="#aW"/><use transform="matrix(0.05,0,0,0.05,29.950000000000003,0)" xlink:href="#aB"/><use transform="matrix(0.05,0,0,0.05,39.95,0)" xlink:href="#aC"/><use transform="matrix(0.05,0,0,0.05,45.900000000000006,0)" xlink:href="#as"/><use transform="matrix(0.05,0,0,0.05,50.900000000000006,0)" xlink:href="#at"/></g><g id="R"><use transform="matrix(0.05,0,0,0.05,0,0)" xlink:href="#aU"/><use transform="matrix(0.05,0,0,0.05,12,0)" xlink:href="#aB"/><use transform="matrix(0.05,0,0,0.05,22,0)" xlink:href="#aH"/><use transform="matrix(0.05,0,0,0.05,25.950000000000003,0)" xlink:href="#aH"/><use transform="matrix(0.05,0,0,0.05,29.899999999999995,0)" xlink:href="#aB"/><use transform="matrix(0.05,0,0,0.05,39.9,0)" xlink:href="#aC"/><use transform="matrix(0.05,0,0,0.05,45.85,0)" xlink:href="#as"/><use transform="matrix(0.05,0,0,0.05,50.85,0)" xlink:href="#at"/></g><g id="S"><use transform="matrix(0.05,0,0,0.05,0,0)" xlink:href="#aJ"/><use transform="matrix(0.05,0,0,0.05,12,0)" xlink:href="#aW"/><use transform="matrix(0.05,0,0,0.05,22,0)" xlink:href="#aW"/><use transform="matrix(0.05,0,0,0.05,32,0)" xlink:href="#aC"/><use transform="matrix(0.05,0,0,0.05,37.95,0)" xlink:href="#aB"/><use transform="matrix(0.05,0,0,0.05,47.95,0)" xlink:href="#am"/><use transform="matrix(0.05,0,0,0.05,56.95,0)" xlink:href="#am"/><use transform="matrix(0.05,0,0,0.05,65.95,0)" xlink:href="#as"/><use transform="matrix(0.05,0,0,0.05,70.95,0)" xlink:href="#at"/></g><g id="T"><use transform="matrix(0.05,0,0,0.05,0,0)" xlink:href="#aJ"/><use transform="matrix(0.05,0,0,0.05,12,0)" xlink:href="#aW"/><use transform="matrix(0.05,0,0,0.05,22,0)" xlink:href="#aW"/><use transform="matrix(0.05,0,0,0.05,32,0)" xlink:href="#aC"/><use transform="matrix(0.05,0,0,0.05,37.95,0)" xlink:href="#aB"/><use transform="matrix(0.05,0,0,0.05,47.95,0)" xlink:href="#am"/><use transform="matrix(0.05,0,0,0.05,56.95,0)" xlink:href="#am"/></g><g id="U"><use transform="matrix(0.05,0,0,0.05,0,0)" xlink:href="#aD"/><use transform="matrix(0.05,0,0,0.05,12.950000000000001,0)" xlink:href="#aF"/><use transform="matrix(0.05,0,0,0.05,22.950000000000003,0)" xlink:href="#aY"/><use transform="matrix(0.05,0,0,0.05,32.95,0)" xlink:href="#ao"/><use transform="matrix(0.05,0,0,0.05,42.95,0)" xlink:href="#an"/><use transform="matrix(0.05,0,0,0.05,47.95,0)" xlink:href="#aC"/><use transform="matrix(0.05,0,0,0.05,53.900000000000006,0)" xlink:href="#aG"/></g><g id="V"><use transform="matrix(0.05,0,0,0.05,0,0)" xlink:href="#aD"/><use transform="matrix(0.05,0,0,0.05,12.950000000000001,0)" xlink:href="#al"/><use transform="matrix(0.05,0,0,0.05,16.900000000000002,0)" xlink:href="#an"/><use transform="matrix(0.05,0,0,0.05,21.900000000000002,0)" xlink:href="#aG"/></g><g id="W"><use transform="matrix(0.05,0,0,0.05,0,0)" xlink:href="#aU"/><use transform="matrix(0.05,0,0,0.05,12,0)" xlink:href="#an"/><use transform="matrix(0.05,0,0,0.05,17,0)" xlink:href="#aC"/><use transform="matrix(0.05,0,0,0.05,22.95,0)" xlink:href="#aB"/><use transform="matrix(0.05,0,0,0.05,32.95,0)" xlink:href="#aB"/><use transform="matrix(0.05,0,0,0.05,42.95,0)" xlink:href="#an"/></g><g id="X"><use transform="matrix(0.05,0,0,0.05,0,0)" xlink:href="#aL"/><use transform="matrix(0.05,0,0,0.05,12.950000000000001,0)" xlink:href="#aF"/><use transform="matrix(0.05,0,0,0.05,22.950000000000003,0)" xlink:href="#aY"/><use transform="matrix(0.05,0,0,0.05,32.95,0)" xlink:href="#am"/><use transform="matrix(0.05,0,0,0.05,41.95,0)" xlink:href="#aB"/></g><path fill="#333" d="M63-220v92h138v28H63V0H30v-248h175v28H63" id="bi"/><g id="Y"><use transform="matrix(0.05,0,0,0.05,0,0)" xlink:href="#bi"/><use transform="matrix(0.05,0,0,0.05,10.950000000000001,0)" xlink:href="#aH"/><use transform="matrix(0.05,0,0,0.05,14.9,0)" xlink:href="#aE"/><use transform="matrix(0.05,0,0,0.05,24.900000000000002,0)" xlink:href="#an"/></g><g id="Z"><use transform="matrix(0.05,0,0,0.05,0,0)" xlink:href="#aD"/><use transform="matrix(0.05,0,0,0.05,12.950000000000001,0)" xlink:href="#aE"/><use transform="matrix(0.05,0,0,0.05,22.950000000000003,0)" xlink:href="#an"/><use transform="matrix(0.05,0,0,0.05,27.950000000000003,0)" xlink:href="#aB"/><use transform="matrix(0.05,0,0,0.05,37.95,0)" xlink:href="#ap"/><use transform="matrix(0.05,0,0,0.05,47.95,0)" xlink:href="#aF"/><use transform="matrix(0.05,0,0,0.05,57.95,0)" xlink:href="#aC"/><use transform="matrix(0.05,0,0,0.05,63.900000000000006,0)" xlink:href="#aG"/></g><g id="aa"><use transform="matrix(0.05,0,0,0.05,0,0)" xlink:href="#aQ"/><use transform="matrix(0.05,0,0,0.05,12,0)" xlink:href="#aE"/><use transform="matrix(0.05,0,0,0.05,22,0)" xlink:href="#aC"/><use transform="matrix(0.05,0,0,0.05,27.950000000000003,0)" xlink:href="#aB"/><use transform="matrix(0.05,0,0,0.05,37.95,0)" xlink:href="#ao"/><use transform="matrix(0.05,0,0,0.05,47.95,0)" xlink:href="#an"/><use transform="matrix(0.05,0,0,0.05,52.95,0)" xlink:href="#as"/><use transform="matrix(0.05,0,0,0.05,57.95,0)" xlink:href="#at"/></g><g id="ab"><use transform="matrix(0.05,0,0,0.05,0,0)" xlink:href="#aD"/><use transform="matrix(0.05,0,0,0.05,12.950000000000001,0)" xlink:href="#aF"/><use transform="matrix(0.05,0,0,0.05,22.950000000000003,0)" xlink:href="#aX"/><use transform="matrix(0.05,0,0,0.05,37.900000000000006,0)" xlink:href="#aX"/><use transform="matrix(0.05,0,0,0.05,52.85,0)" xlink:href="#aB"/><use transform="matrix(0.05,0,0,0.05,62.85,0)" xlink:href="#ao"/><use transform="matrix(0.05,0,0,0.05,72.85000000000001,0)" xlink:href="#an"/><use transform="matrix(0.05,0,0,0.05,77.85000000000001,0)" xlink:href="#am"/></g><g id="ac"><use transform="matrix(0.05,0,0,0.05,0,0)" xlink:href="#aD"/><use transform="matrix(0.05,0,0,0.05,12.950000000000001,0)" xlink:href="#aF"/><use transform="matrix(0.05,0,0,0.05,22.950000000000003,0)" xlink:href="#aX"/><use transform="matrix(0.05,0,0,0.05,37.900000000000006,0)" xlink:href="#aX"/><use transform="matrix(0.05,0,0,0.05,52.85,0)" xlink:href="#aB"/><use transform="matrix(0.05,0,0,0.05,62.85,0)" xlink:href="#ao"/><use transform="matrix(0.05,0,0,0.05,72.85000000000001,0)" xlink:href="#an"/><use transform="matrix(0.05,0,0,0.05,77.85000000000001,0)" xlink:href="#as"/><use transform="matrix(0.05,0,0,0.05,82.85000000000001,0)" xlink:href="#at"/></g><g id="ad"><use transform="matrix(0.05,0,0,0.05,0,0)" xlink:href="#aD"/><use transform="matrix(0.05,0,0,0.05,12.950000000000001,0)" xlink:href="#aF"/><use transform="matrix(0.05,0,0,0.05,22.950000000000003,0)" xlink:href="#aX"/><use transform="matrix(0.05,0,0,0.05,37.900000000000006,0)" xlink:href="#aX"/><use transform="matrix(0.05,0,0,0.05,52.85,0)" xlink:href="#aB"/><use transform="matrix(0.05,0,0,0.05,62.85,0)" xlink:href="#ao"/><use transform="matrix(0.05,0,0,0.05,72.85000000000001,0)" xlink:href="#an"/><use transform="matrix(0.05,0,0,0.05,77.85000000000001,0)" xlink:href="#aE"/><use transform="matrix(0.05,0,0,0.05,87.85000000000001,0)" xlink:href="#an"/><use transform="matrix(0.05,0,0,0.05,92.85000000000001,0)" xlink:href="#aF"/><use transform="matrix(0.05,0,0,0.05,102.85000000000001,0)" xlink:href="#aC"/><use transform="matrix(0.05,0,0,0.05,108.80000000000001,0)" xlink:href="#as"/><use transform="matrix(0.05,0,0,0.05,113.80000000000001,0)" xlink:href="#at"/></g><path fill="#333" d="M143 0L79-87 56-68V0H24v-261h32v163l83-92h37l-77 82L181 0h-38" id="bj"/><g id="ae"><use transform="matrix(0.05,0,0,0.05,0,0)" xlink:href="#aV"/><use transform="matrix(0.05,0,0,0.05,14.950000000000001,0)" xlink:href="#aE"/><use transform="matrix(0.05,0,0,0.05,24.950000000000003,0)" xlink:href="#aC"/><use transform="matrix(0.05,0,0,0.05,30.900000000000002,0)" xlink:href="#bj"/></g><g id="af"><use transform="matrix(0.05,0,0,0.05,0,0)" xlink:href="#bf"/><use transform="matrix(0.05,0,0,0.05,12.950000000000001,0)" xlink:href="#am"/><use transform="matrix(0.05,0,0,0.05,21.950000000000003,0)" xlink:href="#aB"/><use transform="matrix(0.05,0,0,0.05,31.950000000000003,0)" xlink:href="#aC"/><use transform="matrix(0.05,0,0,0.05,37.900000000000006,0)" xlink:href="#aJ"/><use transform="matrix(0.05,0,0,0.05,49.900000000000006,0)" xlink:href="#aR"/><use transform="matrix(0.05,0,0,0.05,58.900000000000006,0)" xlink:href="#an"/><use transform="matrix(0.05,0,0,0.05,63.900000000000006,0)" xlink:href="#al"/><use transform="matrix(0.05,0,0,0.05,67.85000000000001,0)" xlink:href="#aF"/><use transform="matrix(0.05,0,0,0.05,77.85000000000001,0)" xlink:href="#ao"/><use transform="matrix(0.05,0,0,0.05,87.85000000000001,0)" xlink:href="#am"/></g><g id="ag"><use transform="matrix(0.05,0,0,0.05,0,0)" xlink:href="#aJ"/><use transform="matrix(0.05,0,0,0.05,12,0)" xlink:href="#aR"/><use transform="matrix(0.05,0,0,0.05,21,0)" xlink:href="#an"/><use transform="matrix(0.05,0,0,0.05,26,0)" xlink:href="#al"/><use transform="matrix(0.05,0,0,0.05,29.950000000000003,0)" xlink:href="#aF"/><use transform="matrix(0.05,0,0,0.05,39.95,0)" xlink:href="#ao"/><use transform="matrix(0.05,0,0,0.05,49.95,0)" xlink:href="#as"/><use transform="matrix(0.05,0,0,0.05,54.95,0)" xlink:href="#at"/></g><g id="ah"><use transform="matrix(0.05,0,0,0.05,0,0)" xlink:href="#bf"/><use transform="matrix(0.05,0,0,0.05,12.950000000000001,0)" xlink:href="#am"/><use transform="matrix(0.05,0,0,0.05,21.950000000000003,0)" xlink:href="#aB"/><use transform="matrix(0.05,0,0,0.05,31.950000000000003,0)" xlink:href="#aC"/><use transform="matrix(0.05,0,0,0.05,37.900000000000006,0)" xlink:href="#as"/><use transform="matrix(0.05,0,0,0.05,42.900000000000006,0)" xlink:href="#at"/></g><g id="ai"><use transform="matrix(0.05,0,0,0.05,0,0)" xlink:href="#ax"/><use transform="matrix(0.05,0,0,0.05,9.950000000000001,0)" xlink:href="#aG"/><use transform="matrix(0.05,0,0,0.05,18.950000000000003,0)" xlink:href="#aS"/><use transform="matrix(0.05,0,0,0.05,28.950000000000003,0)" xlink:href="#aB"/></g><g id="aj"><use transform="matrix(0.05,0,0,0.05,0,0)" xlink:href="#ax"/><use transform="matrix(0.05,0,0,0.05,10.3,0)" xlink:href="#al"/><use transform="matrix(0.05,0,0,0.05,14.25,0)" xlink:href="#aX"/><use transform="matrix(0.05,0,0,0.05,29.200000000000003,0)" xlink:href="#aB"/></g></defs></g></svg>